HIERARCHY
ROOT Bone-00
{
	OFFSET 0.000000 0.000000 0.000000
	CHANNELS 6 Xposition Yposition Zposition Xrotation Yrotation Zrotation
	JOINT Bone-20
	{
		OFFSET 0.000000 0.000000 2.000000
		CHANNELS 3 Xrotation Yrotation Zrotation
		JOINT Bone-60
		{
			OFFSET 0.000000 0.000000 -0.300000
			CHANNELS 3 Xrotation Yrotation Zrotation
			JOINT Bone-61
			{
				OFFSET 0.300000 0.000000 0.000000
				CHANNELS 3 Xrotation Yrotation Zrotation
				JOINT Bone-62
				{
					OFFSET 0.000000 0.000000 -0.700000
					CHANNELS 3 Xrotation Yrotation Zrotation
					JOINT Bone-63
					{
						OFFSET 0.000000 0.000000 -0.800000
						CHANNELS 3 Xrotation Yrotation Zrotation
						End Site
						{
							OFFSET 0.000000 -0.300000 0.000000
						}
					}
				}
			}
		}
		JOINT Bone-70
		{
			OFFSET 0.000000 0.000000 -0.300000
			CHANNELS 3 Xrotation Yrotation Zrotation
			JOINT Bone-71
			{
				OFFSET -0.300000 0.000000 0.000000
				CHANNELS 3 Xrotation Yrotation Zrotation
				JOINT Bone-72
				{
					OFFSET 0.000000 0.000000 -0.700000
					CHANNELS 3 Xrotation Yrotation Zrotation
					JOINT Bone-73
					{
						OFFSET 0.000000 0.000000 -0.800000
						CHANNELS 3 Xrotation Yrotation Zrotation
						End Site
						{
							OFFSET 0.000000 -0.300000 0.000000
						}
					}
				}
			}
		}
	}
	JOINT Bone-10
	{
		OFFSET 0.000000 0.000000 2.000000
		CHANNELS 3 Xrotation Yrotation Zrotation
		JOINT Bone-30
		{
			OFFSET 0.000000 0.000000 1.000000
			CHANNELS 3 Xrotation Yrotation Zrotation
			End Site
			{
				OFFSET 0.000000 0.000000 1.000000
			}
		}
		JOINT Bone-40
		{
			OFFSET 0.000000 0.000000 1.000000
			CHANNELS 3 Xrotation Yrotation Zrotation
			JOINT Bone-41
			{
				OFFSET 0.500000 0.000000 -0.200000
				CHANNELS 3 Xrotation Yrotation Zrotation
				JOINT Bone-42
				{
					OFFSET 0.500000 0.000000 0.000000
					CHANNELS 3 Xrotation Yrotation Zrotation
					JOINT Bone-43
					{
						OFFSET 0.600000 0.000000 0.000000
						CHANNELS 3 Xrotation Yrotation Zrotation
						End Site
						{
							OFFSET 0.000000 -0.300000 0.000000
						}
					}
				}
			}
		}
		JOINT Bone-50
		{
			OFFSET 0.000000 0.000000 1.000000
			CHANNELS 3 Xrotation Yrotation Zrotation
			JOINT Bone-51
			{
				OFFSET -0.500000 0.000000 -0.204061
				CHANNELS 3 Xrotation Yrotation Zrotation
				JOINT Bone-52
				{
					OFFSET -0.500000 0.000000 0.004061
					CHANNELS 3 Xrotation Yrotation Zrotation
					JOINT Bone-53
					{
						OFFSET -0.600000 0.000000 0.000000
						CHANNELS 3 Xrotation Yrotation Zrotation
						End Site
						{
							OFFSET 0.000000 -0.300000 0.000000
						}
					}
				}
			}
		}
	}
}
MOTION
Frames: 13
Frame Time: 0.050000
0.000000 0.000000 0.000000 -0.000000 0.000000 -0.000000 -0.000000 0.000000 -0.000000 -0.000000 0.000000 0.000000 -0.000000 0.000000 -0.000000 -0.000000 0.000000 -0.000000 -0.000000 0.000000 -0.000000 -0.000000 0.000000 0.000000 -0.000000 0.000000 -0.000000 -0.000000 -0.000000 -0.000000 -0.000000 0.000000 -0.000000 -0.000000 0.000000 -0.000000 -0.000000 0.000000 -0.000000 -0.000000 -0.000003 -0.000001 0.000012 77.319606 0.000068 0.000000 -0.000000 0.000000 0.000000 0.000000 0.000000 -0.000000 0.000000 0.000000 -1.670470 -77.311109 -2.080675 -0.000000 -0.000001 -0.000000 -0.000000 -0.000001 0.000000 
0.000000 0.000000 0.000000 -0.000000 0.000000 -0.000000 -0.000000 0.000000 -0.000000 -0.000000 0.000000 0.000000 -0.000000 0.000000 -0.000000 -0.000000 0.000000 -0.000000 -0.000000 0.000000 -0.000000 -0.000000 0.000000 0.000000 -4.031958 0.000000 0.000000 2.245708 -0.000000 0.000000 0.000000 0.000000 0.000000 -0.000000 0.000000 -0.000000 -0.000000 0.000000 -0.000000 -0.000000 -0.000003 -0.000001 0.000012 77.319606 0.000068 -0.000001 0.000000 -6.410431 -0.000000 0.000001 -0.000001 -0.000000 0.000000 0.000000 29.245733 -67.282329 42.556877 0.000001 0.000002 5.953397 0.000000 0.000001 -5.953397 
0.000000 0.000000 0.000000 -0.000000 0.000000 -0.000000 -0.000000 0.000000 -0.000000 -0.000000 0.000000 0.000000 -0.000000 0.000000 -0.000000 -0.000000 0.000000 -0.000000 -0.000000 0.000000 -0.000000 -0.000000 0.000000 0.000000 -14.317723 0.000000 0.000000 8.327574 0.000000 0.000000 0.000000 0.000000 0.000000 -0.000000 0.000000 -0.000000 -0.000000 0.000000 -0.000000 -0.000000 -0.000003 -0.000001 0.000012 77.319606 0.000068 -0.000002 0.000000 -23.499968 0.000000 -0.000001 -0.000002 -0.000000 0.000000 0.000000 31.511378 -36.127989 80.479422 0.000003 0.000000 19.963656 -0.000000 0.000002 -19.963654 
0.000000 0.000000 0.000000 -0.000000 0.000000 -0.000000 -0.000000 0.000000 -0.000000 -0.000000 0.000000 0.000000 -0.000000 0.000000 -0.000000 -0.000000 0.000000 -0.000000 -0.000000 0.000000 -0.000000 -0.000000 0.000000 0.000000 -27.899865 0.000001 0.000000 17.195988 0.000000 0.000000 0.000000 0.000000 0.000000 -0.000000 0.000000 -0.000000 -0.000000 0.000000 -0.000000 -0.000000 -0.000003 -0.000001 0.000012 77.319606 0.000068 -0.000004 0.000002 -46.728674 0.000001 -0.000001 -0.000001 -0.000000 0.000000 0.000000 16.707131 -11.648583 106.306785 0.000005 0.000001 35.904652 0.000005 0.000007 -35.904655 
0.000000 0.000000 0.000000 -0.000000 0.000000 -0.000000 -0.000000 0.000000 -0.000000 -0.000000 0.000000 0.000000 -0.000000 0.000000 -0.000000 -0.000000 0.000000 -0.000000 -0.000000 0.000000 -0.000000 -0.000000 0.000000 0.000000 -41.693667 0.000001 0.000000 27.683892 0.000000 0.000000 0.000000 -0.000000 0.000000 -0.000000 0.000000 -0.000000 -0.000000 0.000000 -0.000000 -0.000000 -0.000003 -0.000001 0.000012 77.319606 0.000068 -0.000005 0.000003 -70.291089 0.000000 -0.000000 -0.000002 -0.000000 0.000000 0.000000 5.161837 -1.947949 121.740062 0.000005 0.000002 48.264760 0.000004 0.000008 -48.264753 
0.000000 0.000000 0.000000 -0.000000 0.000000 -0.000000 -0.000000 0.000000 -0.000000 -0.000000 0.000000 0.000000 -0.000000 0.000000 -0.000000 -0.000000 0.000000 -0.000000 -0.000000 0.000000 -0.000000 -0.000000 0.000000 0.000000 -53.130105 0.000001 0.000001 38.580084 -0.000000 -0.000000 0.000000 0.000000 0.000000 -0.000000 0.000000 -0.000000 -0.000000 0.000000 -0.000000 -0.000000 -0.000003 -0.000001 0.000012 77.319606 0.000068 -0.000005 0.000005 -89.999989 0.000000 -0.000000 0.000000 -0.000000 0.000000 0.000000 1.116924 0.372240 126.863251 0.000005 0.000003 53.130095 0.000004 0.000008 -53.130092 
0.000000 -0.104000 -0.052000 -0.000000 0.000000 -0.000000 -0.000000 0.000000 -0.000000 -0.000000 0.000000 0.000000 5.953400 -0.000000 0.000000 -0.000000 0.000000 -0.000000 -0.000000 0.000000 -0.000000 -0.000000 0.000000 0.000000 -60.911060 0.000002 0.000001 48.798085 -0.000000 -0.000000 0.000000 0.000000 0.000000 -0.000000 0.000000 -0.000000 -0.000000 0.000000 -0.000000 -0.000000 -0.000003 -0.000001 -5.245739 71.157628 7.328075 -0.000005 0.000007 -104.692081 0.000001 -0.000000 -0.000001 -0.000000 0.000000 0.000000 1.105811 0.313620 121.667608 0.000005 0.000002 48.264760 0.000004 0.000008 -52.544615 
0.000000 -0.352000 -0.176000 -0.000000 0.000000 -0.000000 -0.000000 0.000000 -0.000000 -0.000000 0.000000 0.000000 19.963661 -0.000001 0.000000 -0.000000 0.000000 0.000000 -0.000000 0.000000 0.000000 -0.000000 0.000000 0.000000 -65.724923 0.000002 0.000001 57.515957 0.000000 0.000000 0.000000 0.000000 0.000000 -0.000000 0.000000 -0.000000 -0.000000 0.000000 -0.000000 -0.000000 -0.000003 -0.000001 -8.389124 54.102728 16.345824 -0.000005 0.000009 -114.944188 0.000003 0.000001 -0.000000 -0.000000 0.000000 0.000000 1.033564 0.133200 104.687231 0.000004 0.000001 35.904652 0.000004 0.000008 -50.881211 
0.000000 -0.648000 -0.324000 -0.000000 0.000000 -0.000000 -0.000000 0.000000 -0.000000 -0.000000 0.000000 0.000000 35.904655 -0.000001 0.000000 -0.000000 0.000000 -0.000000 -0.000000 0.000000 0.000000 -0.000000 0.000000 0.000000 -68.431413 0.000002 0.000001 64.191866 -0.000000 -0.000000 0.000000 0.000000 -0.000000 -0.000000 0.000000 -0.000000 -0.000000 0.000000 -0.000000 -0.000000 -0.000003 -0.000001 -6.516497 30.276077 23.766871 -0.000004 0.000005 -121.673837 -0.000001 -0.000000 0.000001 -0.000000 0.000000 0.000000 0.746530 -0.129703 70.288391 0.000002 0.000000 19.963651 0.000003 0.000008 -48.264750 
0.000000 -0.896000 -0.448000 -0.000000 0.000000 -0.000000 -0.000000 0.000000 -0.000000 -0.000000 0.000000 0.000000 48.264760 -0.000001 0.000001 -0.000000 0.000000 -0.000000 -0.000000 0.000000 -0.000000 -0.000000 0.000000 0.000000 -69.675832 0.000002 0.000001 68.462749 -0.000000 0.000000 0.000000 0.000000 0.000000 -0.000000 0.000000 -0.000000 -0.000000 0.000000 -0.000000 -0.000000 -0.000003 -0.000001 -2.404168 8.869919 30.277436 -0.000004 0.000008 -125.557127 -0.000000 0.000000 -0.000001 -0.000000 0.000000 0.000000 0.224159 -0.146970 23.498740 0.000001 -0.000000 5.953397 0.000003 0.000007 -44.812342 
0.000000 -1.000000 -0.500000 -0.000000 0.000000 -0.000000 -0.000000 0.000000 -0.000000 -0.000000 0.000000 0.000000 53.130102 -0.000001 0.000001 -0.000002 0.000000 -0.000000 -0.000002 0.000000 0.000000 -0.000000 0.000000 0.000000 -69.984044 0.000002 0.000001 69.984038 0.000000 -0.000000 0.000000 0.000000 -0.000000 -0.000000 0.000000 -0.000000 -0.000000 0.000000 -0.000000 -0.000000 -0.000003 -0.000001 0.000003 0.000000 33.398478 -0.000004 0.000008 -126.869890 0.000000 -0.000000 0.000000 -0.000000 0.000000 0.000000 -0.000000 0.000000 0.000000 -0.000000 -0.000000 0.000000 0.000002 0.000007 -40.646275 
0.000000 -0.972000 -0.486000 -0.000000 0.000000 -0.000000 -0.000000 0.000000 -0.000000 -0.000000 0.000000 0.000000 51.839507 -0.000001 0.000001 -0.000000 -0.000000 -0.000000 -0.000000 0.000000 -0.000000 -0.000000 0.000000 0.000000 -68.462743 0.000002 0.000001 68.462743 0.000000 0.000000 -0.000000 0.000000 -0.000000 -0.000000 0.000000 -0.000000 -0.000000 0.000000 -0.000000 -0.000000 -0.000003 -0.000001 -0.690119 2.365273 32.527611 -0.000004 0.000008 -125.557114 -0.000000 -0.000000 -0.000000 -0.000000 0.000000 0.000000 -0.000637 -2.566337 -0.020861 -0.000000 0.000000 0.000000 0.000002 0.000006 -35.904658 
0.000000 -0.896000 -0.448000 -0.000000 0.000000 -0.000000 -0.000000 0.000000 -0.000000 -0.000000 0.000000 0.000000 48.264760 -0.000001 0.000001 -0.000000 0.000000 -0.000000 -0.000000 0.000000 -0.000000 -0.000000 0.000000 0.000000 -64.191873 0.000002 0.000001 64.191866 -0.000000 0.000000 0.000000 0.000000 0.000000 -0.000000 0.000000 -0.000000 -0.000000 0.000000 -0.000000 -0.000000 -0.000003 -0.000001 -2.404169 8.869924 30.277429 -0.000005 0.000008 -121.673837 -0.000001 0.000000 -0.000000 -0.000000 0.000000 0.000000 -0.007121 -9.511796 -0.078025 -0.000000 -0.000001 0.000000 0.000001 0.000004 -30.748555 
